<?xml version="1.0" encoding="UTF-8" standalone="no"?>
<!DOCTYPE svg PUBLIC "-//W3C//DTD SVG 1.1//EN" "http://www.w3.org/Graphics/SVG/1.1/DTD/svg11.dtd">
<svg width="100%" height="100%" viewBox="0 0 128 128" version="1.1" xmlns="http://www.w3.org/2000/svg" xmlns:xlink="http://www.w3.org/1999/xlink" xml:space="preserve" xmlns:serif="http://www.serif.com/" style="fill-rule:evenodd;clip-rule:evenodd;stroke-linecap:round;stroke-linejoin:round;stroke-miterlimit:1.5;">
    <g>
        <path d="M53.071,80.853c-8.463,11.557 -10.925,19.414 -8.529,30.494l47.5,-4.798c-1.692,-10.729 -4.788,-16.596 -15.301,-27.287c-9.137,-2.584 -15.742,-2.615 -23.67,1.591Z" style="fill:#fff;"/>
        <clipPath id="_clip1">
            <path d="M53.071,80.853c-8.463,11.557 -10.925,19.414 -8.529,30.494l47.5,-4.798c-1.692,-10.729 -4.788,-16.596 -15.301,-27.287c-9.137,-2.584 -15.742,-2.615 -23.67,1.591Z"/>
        </clipPath>
        <g clip-path="url(#_clip1)">
            <path d="M41.405,88.815c15.937,-8.724 32.246,-8.816 48.81,-2.996" style="fill:none;stroke:#000;stroke-width:2.53px;"/>
            <path d="M41.631,92.922c15.938,-8.724 32.247,-8.816 48.811,-2.996" style="fill:none;stroke:#000;stroke-width:2.53px;"/>
            <path d="M42.535,97.19c15.938,-8.723 32.247,-8.816 48.81,-2.996" style="fill:none;stroke:#000;stroke-width:2.53px;"/>
            <path d="M42.83,101.431c15.938,-8.724 32.247,-8.816 48.81,-2.996" style="fill:none;stroke:#000;stroke-width:2.53px;"/>
            <path d="M43.259,105.435c15.938,-8.724 32.247,-8.816 48.81,-2.996" style="fill:none;stroke:#000;stroke-width:2.53px;"/>
            <path d="M42.914,110.086c15.938,-8.724 32.247,-8.816 48.81,-2.996" style="fill:none;stroke:#000;stroke-width:2.53px;"/>
        </g>
        <path d="M53.071,80.853c-8.463,11.557 -10.925,19.414 -8.529,30.494l47.5,-4.798c-1.692,-10.729 -4.788,-16.596 -15.301,-27.287c-9.137,-2.584 -15.742,-2.615 -23.67,1.591Z" style="fill:none;stroke:#000;stroke-width:1.3px;"/>
        <path d="M46.325,15.05c-0,-0 -6.826,-8.616 -15.289,-4.499c-6.044,2.94 -7.745,25.93 -6.841,38.207c2.189,29.75 7.809,24.937 10.543,37.042c1.388,6.143 3.084,15.721 4.505,24.235c1.649,9.872 14.798,-9.706 14.798,-9.706c0,0 -5.037,-12.883 -7.391,-20.043c-3.214,-9.775 -12.585,-28.432 -11.896,-38.606c0.649,-9.587 11.571,-26.63 11.571,-26.63Z" style="fill:#e3e1ea;stroke:#000;stroke-width:1.06px;"/>
        <path d="M81.954,15.05c-0,-0 6.826,-8.616 15.289,-4.499c6.043,2.94 7.744,25.93 6.841,38.207c-2.19,29.75 -7.81,24.937 -10.544,37.042c-1.387,6.143 -3.083,15.721 -4.505,24.235c-1.648,9.872 -14.798,-9.706 -14.798,-9.706c0,0 5.037,-12.883 7.391,-20.043c3.215,-9.775 12.585,-28.432 11.897,-38.606c-0.649,-9.587 -11.571,-26.63 -11.571,-26.63Z" style="fill:#e3e1ea;stroke:#000;stroke-width:1.06px;"/>
        <path d="M89.736,51.631c0.267,4.426 2.935,24.569 -25.25,25.957c-23.356,1.15 -29.624,-22.513 -29.633,-33.337c-0.009,-11.029 3.268,-30.701 30.907,-35.067c19.318,-3.051 27.856,20.649 26.903,26.536c-0.825,5.091 -3.135,12.466 -2.927,15.911Z" style="fill:#ffeeda;"/>
        <clipPath id="_clip2">
            <path d="M89.736,51.631c0.267,4.426 2.935,24.569 -25.25,25.957c-23.356,1.15 -29.624,-22.513 -29.633,-33.337c-0.009,-11.029 3.268,-30.701 30.907,-35.067c19.318,-3.051 27.856,20.649 26.903,26.536c-0.825,5.091 -3.135,12.466 -2.927,15.911Z"/>
        </clipPath>
        <g clip-path="url(#_clip2)">
            <path d="M34.575,46.559c14.167,-2.476 23.794,-10.212 31.876,-23.37c7.128,15.08 14.248,16.674 27.392,20.914l5.597,-11.614c-3.76,-17.786 -16.075,-26.183 -29.144,-33.751l-42.073,23.229c-2.467,10.589 -0.259,18.739 6.352,24.592Z" style="fill:#e3e1ea;stroke:#000;stroke-width:1.06px;"/>
        </g>
        <path d="M90.864,51.563c0.167,2.777 1.175,11.453 -4.36,18.275c-3.671,4.526 -10.234,8.301 -21.962,8.878c-24.21,1.192 -30.81,-23.244 -30.819,-34.464c-0.006,-6.829 1.242,-16.858 8.376,-24.771c4.746,-5.263 12.101,-9.614 23.485,-11.413c12.151,-1.919 20.278,6.182 24.584,14.363c2.886,5.483 4.012,10.988 3.61,13.47c-0.812,5.013 -3.119,12.269 -2.914,15.662Zm-1.128,0.068c-0.208,-3.445 2.102,-10.82 2.927,-15.911c0.953,-5.887 -7.585,-29.587 -26.903,-26.536c-27.639,4.366 -30.916,24.038 -30.907,35.067c0.009,10.824 6.277,34.487 29.633,33.337c28.185,-1.388 25.517,-21.531 25.25,-25.957Z"/>
        <path d="M89.106,46.566c0.851,-2.364 2.255,-4.429 4.268,-4.976c6.065,-1.651 31.328,2.654 31.328,2.654c0,-0 -20.44,13.975 -26.505,15.626c-2.019,0.549 -4.55,-0.305 -6.56,-1.691c0.567,-1.252 0.882,-2.63 0.885,-4.076c0.006,-2.97 -1.308,-5.648 -3.416,-7.537Z" style="fill:#ffeeda;stroke:#000;stroke-width:1.06px;"/>
        <path d="M33.189,41.436c-6.06,-1.628 -31.339,2.774 -31.339,2.774c-0,-0 20.386,13.897 26.445,15.525c3.683,0.989 9.096,-2.711 9.911,-5.761c0.816,-3.05 -0.657,-11.367 -5.017,-12.538Z" style="fill:#ffeeda;stroke:#000;stroke-width:1.06px;"/>
        <path d="M81.118,25.766c7.714,13.084 8.038,24.919 4.231,36.054c2.095,-1.937 3.785,-5.466 4.762,-11.789c2.501,3.47 1.222,8.435 1.036,13.299c1.687,-2.732 2.947,-6.01 2.986,-10.848c1.285,2.617 0.788,5.7 0.717,9.547c3.386,-11.865 1.18,-20.847 -2.701,-33.2" style="fill:#e3e1ea;stroke:#000;stroke-width:1.06px;"/>
        <path d="M51.195,23.88c-7.647,14.36 -7.756,27.971 -3.653,41.163c-2.179,-2.429 -3.974,-6.654 -5.092,-14.035c-2.493,3.766 -1.091,9.609 -0.81,15.233c-1.777,-3.307 -3.127,-7.204 -3.258,-12.784c-1.265,2.896 -2.247,6.104 -2.102,10.545c-4.526,-11.946 -2.694,-25.538 3.395,-37.322" style="fill:#e3e1ea;stroke:#000;stroke-width:1.06px;"/>
        <path d="M58.311,46.511l0.874,3l-7.414,2.158l-0.873,-3.001l7.413,-2.157Z"/>
        <path d="M73.189,46.511l-0.874,3l7.414,2.158l0.873,-3.001l-7.413,-2.157Z"/>
        <path d="M50.406,38.856c2.322,-1.942 5.241,-2.062 7.1,-0.018c-2.765,1.746 -5.738,2.077 -7.1,0.018Z" style="fill:#e3e1ea;stroke:#000;stroke-width:1.26px;"/>
        <path d="M81.205,38.522c-2.294,-1.95 -5.24,-2.104 -7.172,-0.105c2.747,1.762 5.742,2.126 7.172,0.105Z" style="fill:#e3e1ea;stroke:#000;stroke-width:1.26px;"/>
        <path d="M73.618,61.141c-1.341,3.349 -7.76,2.543 -8.003,-0.897c0.047,3.234 -5.89,4.778 -7.9,1.415" style="fill:none;stroke:#000;stroke-width:1.26px;"/>
        <path d="M117.469,93.92c-18.197,-14.022 -32.807,-21.031 -39.884,-13.308c-5.853,-1.967 -10.988,-2.006 -15.683,-1.173c11.618,14.551 13.022,27.536 13.864,42.652c17.759,0.291 24.476,-21.297 41.703,-28.171Z" style="fill:#ffd97a;"/>
        <clipPath id="_clip3">
            <path d="M117.469,93.92c-18.197,-14.022 -32.807,-21.031 -39.884,-13.308c-5.853,-1.967 -10.988,-2.006 -15.683,-1.173c11.618,14.551 13.022,27.536 13.864,42.652c17.759,0.291 24.476,-21.297 41.703,-28.171Z"/>
        </clipPath>
        <g clip-path="url(#_clip3)">
            <path d="M113.299,91.077c-18.197,-14.022 -23.834,-24.74 -30.911,-17.018l-20.592,-1.147c11.619,14.55 17.93,27.51 18.773,42.626c13.409,-7.056 15.004,-16.369 32.73,-24.461Z" style="fill:#fff;stroke:#000;stroke-width:1.63px;"/>
        </g>
        <path d="M117.469,93.92c-18.197,-14.022 -32.807,-21.031 -39.884,-13.308c-5.853,-1.967 -10.988,-2.006 -15.683,-1.173c11.618,14.551 13.022,27.536 13.864,42.652c17.759,0.291 24.476,-21.297 41.703,-28.171Z" style="fill:none;stroke:#000;stroke-width:1.06px;"/>
        <path d="M11.463,94.507c18.544,-13.707 33.326,-20.462 40.208,-12.62c5.901,-1.866 11.157,-2.927 15.63,-3.013c-11.98,14.348 -13.628,29.416 -14.848,44.514c-17.762,-0.014 -23.938,-21.713 -40.99,-28.881Z" style="fill:#ffd97a;"/>
        <clipPath id="_clip4">
            <path d="M11.463,94.507c18.544,-13.707 33.326,-20.462 40.208,-12.62c5.901,-1.866 11.157,-2.927 15.63,-3.013c-11.98,14.348 -13.628,29.416 -14.848,44.514c-17.762,-0.014 -23.938,-21.713 -40.99,-28.881Z"/>
        </clipPath>
        <g clip-path="url(#_clip4)">
            <path d="M15.704,91.737c18.544,-13.707 24.447,-24.326 31.33,-16.484l20.137,-1.875c-11.98,14.348 -18.136,28.278 -19.356,43.376c-13.23,-7.284 -14.591,-16.623 -32.111,-25.017Z" style="fill:#fff;stroke:#000;stroke-width:1.62px;"/>
        </g>
        <path d="M11.463,94.507c18.544,-13.707 33.326,-20.462 40.208,-12.62c5.901,-1.866 11.157,-2.927 15.63,-3.013c-11.98,14.348 -13.628,29.416 -14.848,44.514c-17.762,-0.014 -23.938,-21.713 -40.99,-28.881Z" style="fill:none;stroke:#000;stroke-width:1.06px;"/>
        <g>
            <path d="M51.754,82.434c10.118,3.275 18.705,2.348 25.785,-0.176l-1.062,-6.302c-6.427,3.39 -15.825,3.291 -23.605,0.52l-1.118,5.958Z" style="fill:#ffd97a;stroke:#000;stroke-width:1.3px;"/>
            <path d="M53.919,81.202c10.02,2.213 14.468,1.612 21.561,-0.293l-0.405,-2.289c-6.556,2.673 -13.072,2.42 -20.759,0.198l-0.397,2.384Z" style="fill:#fff;stroke:#000;stroke-width:1.3px;"/>
            <path d="M66.23,78.488c-0.746,0.062 -1.129,0.193 -1.99,-0.014l0.036,6.196l1.901,-0.168" style="fill:#ffd97a;stroke:#000;stroke-width:1.3px;"/>
            <path d="M66.258,82.597l0.042,-2.063" style="fill:none;stroke:#000;stroke-width:1.3px;"/>
        </g>
        <path d="M46.717,36.659c1.853,-4.165 5.005,-7.686 9.643,-10.471" style="fill:none;stroke:#000;stroke-width:1.06px;"/>
        <path d="M84.175,31.935c-0.962,-1.996 -2.719,-3.451 -5.247,-4.379" style="fill:none;stroke:#000;stroke-width:1.06px;"/>
        <path d="M30.849,76.555c1.477,2.539 2.529,4.866 3.889,9.245c2.423,7.802 1.935,34.659 1.332,34.746c9.476,0.484 10.48,4.485 21.207,4.319c1.85,2.004 -1.039,-30.212 -10.627,-44.579c-1.34,-2.007 -1.871,-5.072 -3.131,-8.115" style="fill:#e3e1ea;stroke:#000;stroke-width:1.06px;"/>
        <path d="M96.926,77.684c-6.888,15.85 -3.121,41.543 -3.121,41.543c-6.849,0.623 -12.49,4.181 -21.011,4.885c-4.037,-1.807 6.926,-46.152 11.952,-52.115" style="fill:#e3e1ea;stroke:#000;stroke-width:1.06px;"/>
    </g>
    <rect x="0" y="0" width="128" height="128" style="fill:none;"/>
</svg>
