# Blender 4.0.2
# www.blender.org
mtllib arrow.mtl
o Cube
v -0.844585 0.357955 4.288270
v -0.844585 0.492262 4.288270
v -0.710278 0.357955 4.288270
v -0.710278 0.492262 4.288270
v -0.960746 0.425167 4.288270
v -0.960746 0.425167 4.288270
v -0.844643 0.309064 4.288270
v -0.844585 0.541096 4.288270
v -0.844585 0.541096 4.288270
v -0.844585 0.357955 4.288270
v -0.844585 0.492262 4.288270
v -0.710278 0.357955 4.288270
v -0.710278 0.492262 4.288270
v -0.960746 0.425167 4.288270
v -0.960746 0.425167 4.288270
v -0.844643 0.309064 4.288270
v -0.844585 0.541096 4.288270
v -0.844585 0.541096 4.288270
vn -0.0000 -0.0000 1.0000
vn -0.0000 1.0000 -0.0000
vn -0.0000 -0.0000 -1.0000
vt 0.625000 0.750000
vt 0.375000 1.000000
vt 0.375000 0.750000
vt 0.625000 1.000000
vt 0.875000 0.750000
vt 0.875000 0.500000
s 0
f 4/1/1 1/2/1 3/3/1
f 1/2/1 2/4/1 6/2/1
f 6/4/1 2/4/1 8/4/1
f 8/5/2 5/6/2 6/5/2
f 1/2/1 6/2/1 7/2/1
f 4/1/1 2/4/1 1/2/1
f 8/5/2 9/6/2 5/6/2
f 13/1/3 12/3/3 10/2/3
f 10/2/3 15/2/3 11/4/3
f 15/4/3 17/4/3 11/4/3
f 17/5/2 15/5/2 14/6/2
f 10/2/3 16/2/3 15/2/3
f 13/1/3 10/2/3 11/4/3
f 17/5/2 14/6/2 18/6/2
